<svg width="512" height="512" viewBox="0 0 512 512" fill="none" xmlns="http://www.w3.org/2000/svg">
<mask id="mask0_109_2" style="mask-type:alpha" maskUnits="userSpaceOnUse" x="0" y="0" width="512" height="512">
<path d="M512 256C512 397.385 397.385 512 256 512C114.615 512 0 397.385 0 256C0 114.615 114.615 0 256 0C397.385 0 512 114.615 512 256Z" fill="#BA5B5B"/>
</mask>
<g mask="url(#mask0_109_2)">
<path d="M512 256C512 397.385 397.385 512 256 512C114.615 512 0 397.385 0 256C0 114.615 114.615 0 256 0C397.385 0 512 114.615 512 256Z" fill="#BA5B5B"/>
<circle cx="256" cy="256" r="225" fill="#FFF799"/>
<path d="M470.556 323.755C456.248 369.065 427.962 408.682 389.754 436.928C351.546 465.174 305.376 480.599 257.863 480.992C210.349 481.386 163.93 466.727 125.26 439.117C86.5892 411.508 57.6519 372.365 42.5952 327.298L44.946 326.273C80.1191 310.946 119.655 308.882 156.232 320.465L170.754 325.064C201.942 334.94 235.788 331.904 264.72 316.634V316.634C282.308 307.352 301.894 302.5 321.781 302.5H328.373C347.252 302.5 365.926 306.418 383.214 314.005V314.005C403.116 322.741 424.818 326.595 446.512 325.248L470.556 323.755Z" fill="#5B9FBA"/>
<path d="M202.045 303.633L200.046 304.556C198.708 305.173 197.567 306.149 196.75 307.375C195.626 309.061 195.185 311.113 195.519 313.112L195.698 314.186C195.894 315.366 196.455 316.455 197.301 317.301C198.73 318.73 200.576 319.67 202.572 319.985L207.153 320.708C208.383 320.903 209.625 321 210.87 321H214.25C217.745 321 221.234 321.274 224.686 321.819L229 322.5L238.392 324.306C240.706 324.751 242.756 326.08 244.107 328.01L246.36 331.229C248.105 333.721 250.299 335.866 252.83 337.553C255.257 339.171 257.954 340.342 260.794 341.01L263.863 341.732C264.616 341.91 265.393 341.961 266.162 341.884L267.851 341.715C269.189 341.581 270.365 340.771 270.966 339.568C271.604 338.292 271.498 336.77 270.69 335.595L266.925 330.118C266.644 329.709 266.438 329.254 266.318 328.773C266.17 328.181 266.689 327.638 267.286 327.757L269.183 328.137C270.385 328.377 271.534 328.83 272.575 329.475L278.663 333.244C280.546 334.409 282.267 335.819 283.782 337.434L286.111 339.918C287.995 341.928 289.242 344.45 289.694 347.167C289.897 348.384 289.938 349.622 289.815 350.849L289.332 355.685C289.13 357.702 287.762 359.413 285.839 360.054C284.949 360.35 284.094 360.744 283.289 361.226L282.216 361.87C278.907 363.856 276.634 367.193 276 371L275.282 378.539C275.11 380.348 275.992 382.095 277.551 383.03C279.056 383.934 280.939 383.926 282.437 383.011L289 379C292.563 376.327 297.456 376.301 301.048 378.935L302.5 380L309.865 385.319C310.907 386.072 312.217 386.357 313.478 386.104C315.308 385.738 316.738 384.308 317.104 382.478L317.284 381.578C317.427 380.865 317.439 380.132 317.319 379.415L317.003 377.517C316.67 375.523 315.974 373.606 314.949 371.864L312.3 367.36C311.771 366.461 311.082 365.666 310.268 365.014C307.929 363.143 306.737 360.186 307.124 357.216L307.805 351.997C307.935 351.001 307.981 349.995 307.942 348.992L307.701 342.719C307.567 339.249 307.076 335.802 306.233 332.433C305.413 329.153 304.265 325.963 302.806 322.913L302.571 322.421C300.532 318.158 297.959 314.17 294.915 310.555L294.614 310.198C292.541 307.737 290.272 305.448 287.829 303.354L285.138 301.047C284.747 300.712 284.579 300.184 284.704 299.685C285.227 297.592 286.241 295.653 287.662 294.029L289 292.5L292.837 288.073C294.337 286.341 294.245 283.745 292.625 282.125C291.898 281.398 290.939 280.951 289.915 280.862L282.348 280.204C280.786 280.068 279.215 280.079 277.654 280.235L277.142 280.286C272.444 280.756 267.917 282.302 263.913 284.804L262 286L256.807 285.056C252.944 284.353 249.025 284 245.097 284C240.049 284 235.018 284.584 230.105 285.74L224.687 287.015C221.905 287.669 219.209 288.646 216.653 289.924L213.333 291.583C211.461 292.52 209.778 293.795 208.369 295.344L206.455 297.45C205.828 298.139 205.382 298.973 205.156 299.877C204.741 301.536 203.597 302.917 202.045 303.633Z" fill="#1D2528"/>
<path d="M125.892 187.8C120.825 187.8 116.452 186.973 112.772 185.32C109.145 183.613 106.319 181.16 104.292 177.96C102.319 174.707 101.225 170.76 101.012 166.12C100.959 163.827 100.932 161.4 100.932 158.84C100.932 156.227 100.959 153.747 101.012 151.4C101.225 146.867 102.345 143.027 104.372 139.88C106.399 136.733 109.252 134.333 112.932 132.68C116.612 131.027 120.932 130.2 125.892 130.2C129.892 130.2 133.439 130.707 136.532 131.72C139.625 132.68 142.212 133.987 144.292 135.64C146.425 137.293 148.025 139.107 149.092 141.08C150.212 143.053 150.799 145 150.852 146.92C150.905 147.4 150.745 147.8 150.372 148.12C150.052 148.44 149.652 148.6 149.172 148.6H137.492C136.905 148.6 136.452 148.52 136.132 148.36C135.865 148.147 135.625 147.853 135.412 147.48C135.039 146.68 134.479 145.853 133.732 145C133.039 144.093 132.052 143.32 130.772 142.68C129.545 142.04 127.919 141.72 125.892 141.72C122.852 141.72 120.452 142.52 118.692 144.12C116.985 145.72 116.052 148.28 115.892 151.8C115.732 156.387 115.732 161.027 115.892 165.72C116.052 169.453 117.039 172.147 118.852 173.8C120.665 175.453 123.065 176.28 126.052 176.28C128.079 176.28 129.865 175.933 131.412 175.24C133.012 174.547 134.265 173.48 135.172 172.04C136.079 170.547 136.532 168.653 136.532 166.36V164.84H129.012C128.425 164.84 127.919 164.653 127.492 164.28C127.119 163.853 126.932 163.347 126.932 162.76V156.84C126.932 156.253 127.119 155.773 127.492 155.4C127.919 154.973 128.425 154.76 129.012 154.76H149.172C149.759 154.76 150.239 154.973 150.612 155.4C150.985 155.773 151.172 156.253 151.172 156.84V165.96C151.172 170.547 150.132 174.467 148.052 177.72C145.972 180.973 143.012 183.48 139.172 185.24C135.385 186.947 130.959 187.8 125.892 187.8ZM179.381 187C178.795 187 178.315 186.813 177.941 186.44C177.568 186.067 177.381 185.587 177.381 185V133C177.381 132.413 177.568 131.933 177.941 131.56C178.315 131.187 178.795 131 179.381 131H190.101C190.688 131 191.168 131.187 191.541 131.56C191.915 131.933 192.101 132.413 192.101 133V185C192.101 185.587 191.915 186.067 191.541 186.44C191.168 186.813 190.688 187 190.101 187H179.381ZM232.795 187C232.208 187 231.728 186.813 231.355 186.44C230.982 186.067 230.795 185.587 230.795 185V143.56H216.555C215.968 143.56 215.488 143.373 215.115 143C214.742 142.573 214.555 142.093 214.555 141.56V133C214.555 132.413 214.742 131.933 215.115 131.56C215.488 131.187 215.968 131 216.555 131H259.595C260.182 131 260.662 131.187 261.035 131.56C261.408 131.933 261.595 132.413 261.595 133V141.56C261.595 142.093 261.408 142.573 261.035 143C260.662 143.373 260.182 143.56 259.595 143.56H245.355V185C245.355 185.587 245.168 186.067 244.795 186.44C244.422 186.813 243.942 187 243.355 187H232.795ZM278.791 187C278.364 187 277.964 186.84 277.591 186.52C277.271 186.147 277.111 185.747 277.111 185.32C277.111 185.053 277.137 184.813 277.191 184.6L295.991 133.24C296.151 132.653 296.471 132.147 296.951 131.72C297.484 131.24 298.204 131 299.111 131H310.951C311.857 131 312.551 131.24 313.031 131.72C313.564 132.147 313.911 132.653 314.071 133.24L332.791 184.6C332.897 184.813 332.951 185.053 332.951 185.32C332.951 185.747 332.764 186.147 332.391 186.52C332.071 186.84 331.671 187 331.191 187H321.351C320.551 187 319.937 186.813 319.511 186.44C319.137 186.013 318.897 185.64 318.791 185.32L315.671 177.16H294.311L291.271 185.32C291.164 185.64 290.924 186.013 290.551 186.44C290.177 186.813 289.537 187 288.631 187H278.791ZM297.591 165.64H312.471L304.951 144.52L297.591 165.64ZM356.256 187C355.723 187 355.243 186.813 354.816 186.44C354.443 186.067 354.256 185.587 354.256 185V133C354.256 132.413 354.443 131.933 354.816 131.56C355.243 131.187 355.723 131 356.256 131H364.896C365.75 131 366.39 131.24 366.816 131.72C367.296 132.147 367.59 132.493 367.696 132.76L381.776 158.04L395.856 132.76C396.016 132.493 396.283 132.147 396.656 131.72C397.083 131.24 397.75 131 398.656 131H407.216C407.803 131 408.283 131.187 408.656 131.56C409.083 131.933 409.296 132.413 409.296 133V185C409.296 185.587 409.083 186.067 408.656 186.44C408.283 186.813 407.803 187 407.216 187H397.696C397.11 187 396.603 186.813 396.176 186.44C395.803 186.067 395.616 185.587 395.616 185V155L386.576 171.72C386.363 172.2 386.043 172.627 385.616 173C385.19 173.373 384.603 173.56 383.856 173.56H379.696C378.95 173.56 378.363 173.373 377.936 173C377.51 172.627 377.163 172.2 376.896 171.72L367.856 155V185C367.856 185.587 367.67 186.067 367.296 186.44C366.923 186.813 366.443 187 365.856 187H356.256Z" fill="#1D2528"/>
<path d="M102.34 214C102.171 214 102.033 213.946 101.926 213.839C101.818 213.732 101.765 213.594 101.765 213.425V198.475C101.765 198.306 101.818 198.168 101.926 198.061C102.033 197.954 102.171 197.9 102.34 197.9H108.32C109.822 197.9 111.103 198.145 112.161 198.636C113.219 199.111 114.031 199.817 114.599 200.752C115.166 201.672 115.473 202.814 115.519 204.179C115.534 204.854 115.542 205.444 115.542 205.95C115.542 206.456 115.534 207.039 115.519 207.698C115.457 209.124 115.151 210.305 114.599 211.24C114.062 212.175 113.272 212.873 112.23 213.333C111.202 213.778 109.937 214 108.435 214H102.34ZM105.882 210.688H108.32C108.979 210.688 109.523 210.588 109.953 210.389C110.397 210.174 110.727 209.845 110.942 209.4C111.172 208.955 111.294 208.373 111.31 207.652C111.34 207.207 111.356 206.809 111.356 206.456C111.371 206.103 111.371 205.751 111.356 205.398C111.356 205.045 111.34 204.654 111.31 204.225C111.279 203.182 111.003 202.423 110.482 201.948C109.976 201.457 109.217 201.212 108.205 201.212H105.882V210.688ZM118.804 214C118.635 214 118.497 213.946 118.39 213.839C118.282 213.732 118.229 213.594 118.229 213.425V198.475C118.229 198.306 118.282 198.168 118.39 198.061C118.497 197.954 118.635 197.9 118.804 197.9H129.545C129.713 197.9 129.851 197.954 129.959 198.061C130.066 198.168 130.12 198.306 130.12 198.475V200.637C130.12 200.806 130.066 200.944 129.959 201.051C129.851 201.158 129.713 201.212 129.545 201.212H122.208V204.317H129.039C129.207 204.317 129.345 204.378 129.453 204.501C129.56 204.608 129.614 204.746 129.614 204.915V206.916C129.614 207.069 129.56 207.207 129.453 207.33C129.345 207.437 129.207 207.491 129.039 207.491H122.208V210.688H129.729C129.897 210.688 130.035 210.742 130.143 210.849C130.25 210.956 130.304 211.094 130.304 211.263V213.425C130.304 213.594 130.25 213.732 130.143 213.839C130.035 213.946 129.897 214 129.729 214H118.804ZM133.493 214C133.324 214 133.186 213.946 133.079 213.839C132.972 213.732 132.918 213.594 132.918 213.425V198.475C132.918 198.306 132.972 198.168 133.079 198.061C133.186 197.954 133.324 197.9 133.493 197.9H144.234C144.403 197.9 144.541 197.954 144.648 198.061C144.755 198.168 144.809 198.306 144.809 198.475V200.637C144.809 200.806 144.755 200.944 144.648 201.051C144.541 201.158 144.403 201.212 144.234 201.212H136.897V204.317H143.728C143.897 204.317 144.035 204.378 144.142 204.501C144.249 204.608 144.303 204.746 144.303 204.915V206.916C144.303 207.069 144.249 207.207 144.142 207.33C144.035 207.437 143.897 207.491 143.728 207.491H136.897V210.688H144.418C144.587 210.688 144.725 210.742 144.832 210.849C144.939 210.956 144.993 211.094 144.993 211.263V213.425C144.993 213.594 144.939 213.732 144.832 213.839C144.725 213.946 144.587 214 144.418 214H133.493ZM148.183 214C148.029 214 147.891 213.946 147.769 213.839C147.661 213.732 147.608 213.594 147.608 213.425V198.475C147.608 198.306 147.661 198.168 147.769 198.061C147.891 197.954 148.029 197.9 148.183 197.9H150.667C150.912 197.9 151.096 197.969 151.219 198.107C151.357 198.23 151.441 198.329 151.472 198.406L155.52 205.674L159.568 198.406C159.614 198.329 159.69 198.23 159.798 198.107C159.92 197.969 160.112 197.9 160.373 197.9H162.834C163.002 197.9 163.14 197.954 163.248 198.061C163.37 198.168 163.432 198.306 163.432 198.475V213.425C163.432 213.594 163.37 213.732 163.248 213.839C163.14 213.946 163.002 214 162.834 214H160.097C159.928 214 159.782 213.946 159.66 213.839C159.552 213.732 159.499 213.594 159.499 213.425V204.8L156.9 209.607C156.838 209.745 156.746 209.868 156.624 209.975C156.501 210.082 156.332 210.136 156.118 210.136H154.922C154.707 210.136 154.538 210.082 154.416 209.975C154.293 209.868 154.193 209.745 154.117 209.607L151.518 204.8V213.425C151.518 213.594 151.464 213.732 151.357 213.839C151.249 213.946 151.111 214 150.943 214H148.183ZM167.207 214C167.038 214 166.9 213.946 166.793 213.839C166.686 213.732 166.632 213.594 166.632 213.425V198.475C166.632 198.306 166.686 198.168 166.793 198.061C166.9 197.954 167.038 197.9 167.207 197.9H177.948C178.117 197.9 178.255 197.954 178.362 198.061C178.469 198.168 178.523 198.306 178.523 198.475V200.637C178.523 200.806 178.469 200.944 178.362 201.051C178.255 201.158 178.117 201.212 177.948 201.212H170.611V204.317H177.442C177.611 204.317 177.749 204.378 177.856 204.501C177.963 204.608 178.017 204.746 178.017 204.915V206.916C178.017 207.069 177.963 207.207 177.856 207.33C177.749 207.437 177.611 207.491 177.442 207.491H170.611V210.688H178.132C178.301 210.688 178.439 210.742 178.546 210.849C178.653 210.956 178.707 211.094 178.707 211.263V213.425C178.707 213.594 178.653 213.732 178.546 213.839C178.439 213.946 178.301 214 178.132 214H167.207ZM181.896 214C181.728 214 181.59 213.946 181.482 213.839C181.375 213.732 181.321 213.594 181.321 213.425V198.475C181.321 198.306 181.375 198.168 181.482 198.061C181.59 197.954 181.728 197.9 181.896 197.9H187.876C189.379 197.9 190.659 198.145 191.717 198.636C192.775 199.111 193.588 199.817 194.155 200.752C194.723 201.672 195.029 202.814 195.075 204.179C195.091 204.854 195.098 205.444 195.098 205.95C195.098 206.456 195.091 207.039 195.075 207.698C195.014 209.124 194.707 210.305 194.155 211.24C193.619 212.175 192.829 212.873 191.786 213.333C190.759 213.778 189.494 214 187.991 214H181.896ZM185.438 210.688H187.876C188.536 210.688 189.08 210.588 189.509 210.389C189.954 210.174 190.284 209.845 190.498 209.4C190.728 208.955 190.851 208.373 190.866 207.652C190.897 207.207 190.912 206.809 190.912 206.456C190.928 206.103 190.928 205.751 190.912 205.398C190.912 205.045 190.897 204.654 190.866 204.225C190.836 203.182 190.56 202.423 190.038 201.948C189.532 201.457 188.773 201.212 187.761 201.212H185.438V210.688ZM206.26 214C206.091 214 205.953 213.946 205.846 213.839C205.738 213.732 205.685 213.594 205.685 213.425V201.511H201.591C201.422 201.511 201.284 201.457 201.177 201.35C201.069 201.227 201.016 201.089 201.016 200.936V198.475C201.016 198.306 201.069 198.168 201.177 198.061C201.284 197.954 201.422 197.9 201.591 197.9H213.965C214.133 197.9 214.271 197.954 214.379 198.061C214.486 198.168 214.54 198.306 214.54 198.475V200.936C214.54 201.089 214.486 201.227 214.379 201.35C214.271 201.457 214.133 201.511 213.965 201.511H209.871V213.425C209.871 213.594 209.817 213.732 209.71 213.839C209.602 213.946 209.464 214 209.296 214H206.26ZM222.961 214.23C221.55 214.23 220.324 214 219.281 213.54C218.238 213.08 217.426 212.39 216.843 211.47C216.26 210.535 215.938 209.369 215.877 207.974C215.862 207.315 215.854 206.655 215.854 205.996C215.854 205.337 215.862 204.67 215.877 203.995C215.938 202.615 216.26 201.457 216.843 200.522C217.441 199.571 218.261 198.858 219.304 198.383C220.347 197.908 221.566 197.67 222.961 197.67C224.341 197.67 225.552 197.908 226.595 198.383C227.653 198.858 228.481 199.571 229.079 200.522C229.677 201.457 229.999 202.615 230.045 203.995C230.076 204.67 230.091 205.337 230.091 205.996C230.091 206.655 230.076 207.315 230.045 207.974C229.984 209.369 229.662 210.535 229.079 211.47C228.496 212.39 227.684 213.08 226.641 213.54C225.598 214 224.372 214.23 222.961 214.23ZM222.961 210.918C223.774 210.918 224.433 210.673 224.939 210.182C225.46 209.691 225.736 208.909 225.767 207.836C225.798 207.161 225.813 206.525 225.813 205.927C225.813 205.329 225.798 204.708 225.767 204.064C225.736 203.343 225.598 202.761 225.353 202.316C225.123 201.856 224.801 201.519 224.387 201.304C223.973 201.089 223.498 200.982 222.961 200.982C222.44 200.982 221.972 201.089 221.558 201.304C221.144 201.519 220.814 201.856 220.569 202.316C220.324 202.761 220.186 203.343 220.155 204.064C220.14 204.708 220.132 205.329 220.132 205.927C220.132 206.525 220.14 207.161 220.155 207.836C220.201 208.909 220.477 209.691 220.983 210.182C221.489 210.673 222.148 210.918 222.961 210.918ZM238.228 214C238.06 214 237.922 213.946 237.814 213.839C237.707 213.732 237.653 213.594 237.653 213.425V198.475C237.653 198.306 237.707 198.168 237.814 198.061C237.922 197.954 238.06 197.9 238.228 197.9H245.243C246.562 197.9 247.643 198.084 248.486 198.452C249.33 198.82 249.951 199.349 250.349 200.039C250.763 200.714 250.97 201.519 250.97 202.454C250.97 203.006 250.863 203.497 250.648 203.926C250.449 204.34 250.196 204.685 249.889 204.961C249.598 205.237 249.322 205.436 249.061 205.559C249.644 205.835 250.158 206.287 250.602 206.916C251.062 207.545 251.292 208.281 251.292 209.124C251.292 210.136 251.062 211.01 250.602 211.746C250.158 212.467 249.498 213.026 248.624 213.425C247.766 213.808 246.708 214 245.45 214H238.228ZM241.77 211.01H244.99C245.65 211.01 246.148 210.818 246.485 210.435C246.823 210.052 246.991 209.615 246.991 209.124C246.991 208.587 246.815 208.135 246.462 207.767C246.125 207.399 245.634 207.215 244.99 207.215H241.77V211.01ZM241.77 204.294H244.783C245.412 204.294 245.88 204.133 246.186 203.811C246.508 203.489 246.669 203.075 246.669 202.569C246.669 202.078 246.508 201.68 246.186 201.373C245.88 201.051 245.412 200.89 244.783 200.89H241.77V204.294ZM254.423 214C254.254 214 254.116 213.946 254.009 213.839C253.901 213.732 253.848 213.594 253.848 213.425V198.475C253.848 198.306 253.901 198.168 254.009 198.061C254.116 197.954 254.254 197.9 254.423 197.9H265.164C265.332 197.9 265.47 197.954 265.578 198.061C265.685 198.168 265.739 198.306 265.739 198.475V200.637C265.739 200.806 265.685 200.944 265.578 201.051C265.47 201.158 265.332 201.212 265.164 201.212H257.827V204.317H264.658C264.826 204.317 264.964 204.378 265.072 204.501C265.179 204.608 265.233 204.746 265.233 204.915V206.916C265.233 207.069 265.179 207.207 265.072 207.33C264.964 207.437 264.826 207.491 264.658 207.491H257.827V210.688H265.348C265.516 210.688 265.654 210.742 265.762 210.849C265.869 210.956 265.923 211.094 265.923 211.263V213.425C265.923 213.594 265.869 213.732 265.762 213.839C265.654 213.946 265.516 214 265.348 214H254.423ZM280.173 214.23C278.793 214.23 277.581 214.008 276.539 213.563C275.511 213.103 274.714 212.405 274.147 211.47C273.579 210.519 273.296 209.316 273.296 207.859V198.475C273.296 198.306 273.349 198.168 273.457 198.061C273.564 197.954 273.702 197.9 273.871 197.9H276.838C277.006 197.9 277.144 197.954 277.252 198.061C277.359 198.168 277.413 198.306 277.413 198.475V207.836C277.413 208.833 277.65 209.584 278.126 210.09C278.616 210.581 279.299 210.826 280.173 210.826C281.031 210.826 281.698 210.581 282.174 210.09C282.664 209.584 282.91 208.833 282.91 207.836V198.475C282.91 198.306 282.963 198.168 283.071 198.061C283.193 197.954 283.331 197.9 283.485 197.9H286.475C286.628 197.9 286.758 197.954 286.866 198.061C286.988 198.168 287.05 198.306 287.05 198.475V207.859C287.05 209.316 286.766 210.519 286.199 211.47C285.631 212.405 284.834 213.103 283.807 213.563C282.779 214.008 281.568 214.23 280.173 214.23ZM290.675 214C290.506 214 290.368 213.946 290.261 213.839C290.153 213.732 290.1 213.594 290.1 213.425V198.475C290.1 198.306 290.153 198.168 290.261 198.061C290.368 197.954 290.506 197.9 290.675 197.9H293.113C293.373 197.9 293.557 197.961 293.665 198.084C293.787 198.191 293.864 198.276 293.895 198.337L299.507 207.192V198.475C299.507 198.306 299.56 198.168 299.668 198.061C299.775 197.954 299.913 197.9 300.082 197.9H302.842C303.01 197.9 303.148 197.954 303.256 198.061C303.363 198.168 303.417 198.306 303.417 198.475V213.425C303.417 213.578 303.363 213.716 303.256 213.839C303.148 213.946 303.01 214 302.842 214H300.381C300.135 214 299.951 213.939 299.829 213.816C299.721 213.693 299.652 213.609 299.622 213.563L294.01 205.053V213.425C294.01 213.594 293.956 213.732 293.849 213.839C293.741 213.946 293.603 214 293.435 214H290.675ZM307.206 214C307.037 214 306.899 213.946 306.792 213.839C306.685 213.732 306.631 213.594 306.631 213.425V198.475C306.631 198.306 306.685 198.168 306.792 198.061C306.899 197.954 307.037 197.9 307.206 197.9H310.288C310.457 197.9 310.595 197.954 310.702 198.061C310.809 198.168 310.863 198.306 310.863 198.475V213.425C310.863 213.594 310.809 213.732 310.702 213.839C310.595 213.946 310.457 214 310.288 214H307.206ZM318.688 214C318.427 214 318.22 213.931 318.067 213.793C317.914 213.655 317.806 213.494 317.745 213.31L313.053 198.59C313.022 198.513 313.007 198.444 313.007 198.383C313.007 198.26 313.053 198.153 313.145 198.061C313.252 197.954 313.375 197.9 313.513 197.9H316.365C316.61 197.9 316.802 197.969 316.94 198.107C317.078 198.245 317.162 198.375 317.193 198.498L320.436 209.124L323.702 198.498C323.748 198.375 323.832 198.245 323.955 198.107C324.093 197.969 324.285 197.9 324.53 197.9H327.382C327.52 197.9 327.635 197.954 327.727 198.061C327.834 198.153 327.888 198.26 327.888 198.383C327.888 198.444 327.873 198.513 327.842 198.59L323.15 213.31C323.089 213.494 322.981 213.655 322.828 213.793C322.69 213.931 322.483 214 322.207 214H318.688ZM330.61 214C330.442 214 330.304 213.946 330.196 213.839C330.089 213.732 330.035 213.594 330.035 213.425V198.475C330.035 198.306 330.089 198.168 330.196 198.061C330.304 197.954 330.442 197.9 330.61 197.9H341.351C341.52 197.9 341.658 197.954 341.765 198.061C341.873 198.168 341.926 198.306 341.926 198.475V200.637C341.926 200.806 341.873 200.944 341.765 201.051C341.658 201.158 341.52 201.212 341.351 201.212H334.014V204.317H340.845C341.014 204.317 341.152 204.378 341.259 204.501C341.367 204.608 341.42 204.746 341.42 204.915V206.916C341.42 207.069 341.367 207.207 341.259 207.33C341.152 207.437 341.014 207.491 340.845 207.491H334.014V210.688H341.535C341.704 210.688 341.842 210.742 341.949 210.849C342.057 210.956 342.11 211.094 342.11 211.263V213.425C342.11 213.594 342.057 213.732 341.949 213.839C341.842 213.946 341.704 214 341.535 214H330.61ZM345.3 214C345.131 214 344.993 213.946 344.886 213.839C344.778 213.732 344.725 213.594 344.725 213.425V198.475C344.725 198.306 344.778 198.168 344.886 198.061C344.993 197.954 345.131 197.9 345.3 197.9H351.556C353.534 197.9 355.09 198.36 356.225 199.28C357.375 200.185 357.95 201.473 357.95 203.144C357.95 204.233 357.681 205.153 357.145 205.904C356.623 206.655 355.933 207.223 355.075 207.606L358.249 213.264C358.295 213.356 358.318 213.44 358.318 213.517C358.318 213.64 358.264 213.755 358.157 213.862C358.065 213.954 357.95 214 357.812 214H354.776C354.484 214 354.27 213.931 354.132 213.793C353.994 213.64 353.894 213.502 353.833 213.379L351.211 208.319H348.842V213.425C348.842 213.594 348.788 213.732 348.681 213.839C348.573 213.946 348.435 214 348.267 214H345.3ZM348.842 205.076H351.51C352.23 205.076 352.767 204.9 353.12 204.547C353.488 204.194 353.672 203.711 353.672 203.098C353.672 202.5 353.495 202.017 353.143 201.649C352.805 201.281 352.261 201.097 351.51 201.097H348.842V205.076ZM366.63 214.23C365.097 214.23 363.824 214.015 362.812 213.586C361.8 213.141 361.033 212.566 360.512 211.861C359.991 211.156 359.715 210.404 359.684 209.607C359.684 209.484 359.73 209.377 359.822 209.285C359.929 209.178 360.052 209.124 360.19 209.124H363.088C363.303 209.124 363.464 209.162 363.571 209.239C363.694 209.316 363.801 209.415 363.893 209.538C364.016 209.768 364.184 209.99 364.399 210.205C364.629 210.42 364.92 210.596 365.273 210.734C365.641 210.857 366.093 210.918 366.63 210.918C367.519 210.918 368.186 210.78 368.631 210.504C369.091 210.228 369.321 209.852 369.321 209.377C369.321 209.04 369.198 208.764 368.953 208.549C368.708 208.319 368.309 208.12 367.757 207.951C367.22 207.767 366.5 207.583 365.595 207.399C364.43 207.154 363.433 206.839 362.605 206.456C361.792 206.057 361.171 205.544 360.742 204.915C360.313 204.271 360.098 203.474 360.098 202.523C360.098 201.588 360.359 200.752 360.88 200.016C361.417 199.28 362.16 198.705 363.111 198.291C364.062 197.877 365.189 197.67 366.492 197.67C367.55 197.67 368.478 197.808 369.275 198.084C370.088 198.36 370.77 198.728 371.322 199.188C371.874 199.648 372.288 200.139 372.564 200.66C372.855 201.166 373.009 201.664 373.024 202.155C373.024 202.278 372.978 202.393 372.886 202.5C372.794 202.592 372.679 202.638 372.541 202.638H369.505C369.336 202.638 369.191 202.607 369.068 202.546C368.945 202.485 368.838 202.385 368.746 202.247C368.654 201.91 368.409 201.618 368.01 201.373C367.627 201.112 367.121 200.982 366.492 200.982C365.817 200.982 365.288 201.105 364.905 201.35C364.537 201.58 364.353 201.94 364.353 202.431C364.353 202.738 364.453 203.006 364.652 203.236C364.867 203.466 365.212 203.665 365.687 203.834C366.178 204.003 366.845 204.179 367.688 204.363C369.083 204.624 370.21 204.953 371.069 205.352C371.928 205.735 372.556 206.241 372.955 206.87C373.354 207.483 373.553 208.258 373.553 209.193C373.553 210.236 373.254 211.14 372.656 211.907C372.073 212.658 371.261 213.233 370.218 213.632C369.175 214.031 367.979 214.23 366.63 214.23ZM376.431 214C376.262 214 376.124 213.946 376.017 213.839C375.909 213.732 375.856 213.594 375.856 213.425V198.475C375.856 198.306 375.909 198.168 376.017 198.061C376.124 197.954 376.262 197.9 376.431 197.9H379.513C379.681 197.9 379.819 197.954 379.927 198.061C380.034 198.168 380.088 198.306 380.088 198.475V213.425C380.088 213.594 380.034 213.732 379.927 213.839C379.819 213.946 379.681 214 379.513 214H376.431ZM387.43 214C387.261 214 387.123 213.946 387.016 213.839C386.908 213.732 386.855 213.594 386.855 213.425V201.511H382.761C382.592 201.511 382.454 201.457 382.347 201.35C382.239 201.227 382.186 201.089 382.186 200.936V198.475C382.186 198.306 382.239 198.168 382.347 198.061C382.454 197.954 382.592 197.9 382.761 197.9H395.135C395.303 197.9 395.441 197.954 395.549 198.061C395.656 198.168 395.71 198.306 395.71 198.475V200.936C395.71 201.089 395.656 201.227 395.549 201.35C395.441 201.457 395.303 201.511 395.135 201.511H391.041V213.425C391.041 213.594 390.987 213.732 390.88 213.839C390.772 213.946 390.634 214 390.466 214H387.43ZM402.515 214C402.362 214 402.224 213.946 402.101 213.839C401.994 213.732 401.94 213.594 401.94 213.425V208.48L396.604 198.636C396.589 198.59 396.573 198.552 396.558 198.521C396.543 198.475 396.535 198.429 396.535 198.383C396.535 198.26 396.581 198.153 396.673 198.061C396.78 197.954 396.903 197.9 397.041 197.9H399.916C400.146 197.9 400.322 197.961 400.445 198.084C400.583 198.191 400.667 198.291 400.698 198.383L404.01 204.317L407.322 198.383C407.368 198.291 407.452 198.191 407.575 198.084C407.713 197.961 407.897 197.9 408.127 197.9H411.002C411.14 197.9 411.255 197.954 411.347 198.061C411.439 198.153 411.485 198.26 411.485 198.383C411.485 198.429 411.477 198.475 411.462 198.521C411.462 198.552 411.454 198.59 411.439 198.636L406.08 208.48V213.425C406.08 213.594 406.026 213.732 405.919 213.839C405.812 213.946 405.674 214 405.505 214H402.515Z" fill="#1D2528"/>
</g>
</svg>
